<?xml version="1.0" standalone="no"?>
<!DOCTYPE svg PUBLIC "-//W3C//DTD SVG 20010904//EN"
 "http://www.w3.org/TR/2001/REC-SVG-20010904/DTD/svg10.dtd">
<svg version="1.0" xmlns="http://www.w3.org/2000/svg"
 width="913.000000pt" height="538.000000pt" viewBox="0 0 913.000000 538.000000"
 preserveAspectRatio="xMidYMid meet">
<g transform="translate(0.000000,538.000000) scale(0.100000,-0.100000)"
fill="#000000" stroke="none">
<path d="M34 5174 c3 -26 6 -1173 6 -2550 l0 -2504 1043 0 c1032 0 1207 5
1452 36 431 55 827 238 1093 503 335 335 560 817 641 1373 61 415 51 976 -24
1388 -120 662 -438 1191 -895 1489 -191 125 -448 225 -670 261 -255 41 -304
42 -1494 47 l-1159 4 7 -47z m1976 -824 c310 -17 455 -47 618 -127 184 -90
323 -232 426 -434 141 -277 190 -568 189 -1129 -1 -563 -51 -866 -193 -1165
-84 -178 -191 -291 -352 -375 -232 -121 -382 -140 -1130 -140 l-508 0 0 1690
0 1690 388 0 c213 0 466 -5 562 -10z"/>
<path d="M5187 2673 l3 -2548 508 -3 509 -2 7 77 c4 43 4 477 0 966 l-7 887
529 0 c948 0 1252 38 1552 192 209 107 369 239 497 409 211 280 305 586 305
990 0 383 -85 706 -245 936 -152 218 -308 357 -522 466 -179 92 -336 129 -668
158 -85 8 -536 13 -1300 16 l-1170 5 2 -2549z m2018 1677 c262 -16 321 -29
465 -98 101 -48 242 -187 288 -282 94 -193 97 -455 8 -642 -90 -187 -266 -322
-481 -367 -175 -37 -260 -42 -772 -48 l-503 -6 0 727 0 726 413 0 c226 0 489
-5 582 -10z"/>
</g>
</svg>